<mxfile host="app.diagrams.net" modified="2024-02-26T07:15:42.391Z" agent="Mozilla/5.0 (Windows NT 10.0; Win64; x64) AppleWebKit/537.36 (KHTML, like Gecko) Chrome/122.0.0.0 Safari/537.36" etag="tj3Oc1mjfpZbnEjFZ_FN" version="23.1.6" type="github">
  <diagram name="Page-1" id="w1F8a1oA-2aJ_7H_fiV3">
    <mxGraphModel dx="880" dy="468" grid="1" gridSize="10" guides="1" tooltips="1" connect="1" arrows="1" fold="1" page="1" pageScale="1" pageWidth="3300" pageHeight="4681" math="0" shadow="0">
      <root>
        <mxCell id="0" />
        <mxCell id="1" parent="0" />
        <mxCell id="WVHRP2i-yzT7vewwZdG2-1" value="Login / Logout" style="ellipse;whiteSpace=wrap;html=1;" vertex="1" parent="1">
          <mxGeometry x="390" y="40" width="120" height="80" as="geometry" />
        </mxCell>
        <mxCell id="WVHRP2i-yzT7vewwZdG2-2" value="manage users" style="ellipse;whiteSpace=wrap;html=1;" vertex="1" parent="1">
          <mxGeometry x="190" y="150" width="120" height="80" as="geometry" />
        </mxCell>
        <mxCell id="WVHRP2i-yzT7vewwZdG2-3" value="manage content" style="ellipse;whiteSpace=wrap;html=1;" vertex="1" parent="1">
          <mxGeometry x="200" y="270" width="120" height="80" as="geometry" />
        </mxCell>
        <mxCell id="WVHRP2i-yzT7vewwZdG2-17" style="edgeStyle=orthogonalEdgeStyle;rounded=0;orthogonalLoop=1;jettySize=auto;html=1;exitX=1;exitY=0.5;exitDx=0;exitDy=0;entryX=0;entryY=0.5;entryDx=0;entryDy=0;" edge="1" parent="1" source="WVHRP2i-yzT7vewwZdG2-4" target="WVHRP2i-yzT7vewwZdG2-5">
          <mxGeometry relative="1" as="geometry" />
        </mxCell>
        <mxCell id="WVHRP2i-yzT7vewwZdG2-4" value="posts" style="ellipse;whiteSpace=wrap;html=1;" vertex="1" parent="1">
          <mxGeometry x="210" y="390" width="120" height="80" as="geometry" />
        </mxCell>
        <mxCell id="WVHRP2i-yzT7vewwZdG2-5" value="manage posts" style="ellipse;whiteSpace=wrap;html=1;" vertex="1" parent="1">
          <mxGeometry x="380" y="390" width="120" height="80" as="geometry" />
        </mxCell>
        <mxCell id="WVHRP2i-yzT7vewwZdG2-6" value="organize trends" style="ellipse;whiteSpace=wrap;html=1;" vertex="1" parent="1">
          <mxGeometry x="580" y="150" width="120" height="80" as="geometry" />
        </mxCell>
        <mxCell id="WVHRP2i-yzT7vewwZdG2-21" style="edgeStyle=orthogonalEdgeStyle;rounded=0;orthogonalLoop=1;jettySize=auto;html=1;exitX=0;exitY=0.5;exitDx=0;exitDy=0;" edge="1" parent="1" source="WVHRP2i-yzT7vewwZdG2-7" target="WVHRP2i-yzT7vewwZdG2-10">
          <mxGeometry relative="1" as="geometry" />
        </mxCell>
        <mxCell id="WVHRP2i-yzT7vewwZdG2-7" value="user profile" style="ellipse;whiteSpace=wrap;html=1;" vertex="1" parent="1">
          <mxGeometry x="590" y="260" width="120" height="80" as="geometry" />
        </mxCell>
        <mxCell id="WVHRP2i-yzT7vewwZdG2-9" value="view posts" style="ellipse;whiteSpace=wrap;html=1;" vertex="1" parent="1">
          <mxGeometry x="600" y="380" width="120" height="80" as="geometry" />
        </mxCell>
        <mxCell id="WVHRP2i-yzT7vewwZdG2-10" value="edit profile" style="ellipse;whiteSpace=wrap;html=1;" vertex="1" parent="1">
          <mxGeometry x="420" y="260" width="120" height="80" as="geometry" />
        </mxCell>
        <mxCell id="WVHRP2i-yzT7vewwZdG2-14" style="edgeStyle=orthogonalEdgeStyle;rounded=0;orthogonalLoop=1;jettySize=auto;html=1;exitX=0.75;exitY=0.1;exitDx=0;exitDy=0;exitPerimeter=0;entryX=0;entryY=0.5;entryDx=0;entryDy=0;" edge="1" parent="1" source="WVHRP2i-yzT7vewwZdG2-11" target="WVHRP2i-yzT7vewwZdG2-2">
          <mxGeometry relative="1" as="geometry" />
        </mxCell>
        <mxCell id="WVHRP2i-yzT7vewwZdG2-15" style="edgeStyle=orthogonalEdgeStyle;rounded=0;orthogonalLoop=1;jettySize=auto;html=1;exitX=1;exitY=0.3333333333333333;exitDx=0;exitDy=0;exitPerimeter=0;" edge="1" parent="1" source="WVHRP2i-yzT7vewwZdG2-11" target="WVHRP2i-yzT7vewwZdG2-3">
          <mxGeometry relative="1" as="geometry" />
        </mxCell>
        <mxCell id="WVHRP2i-yzT7vewwZdG2-22" style="edgeStyle=orthogonalEdgeStyle;rounded=0;orthogonalLoop=1;jettySize=auto;html=1;exitX=0.5;exitY=0;exitDx=0;exitDy=0;exitPerimeter=0;entryX=0;entryY=0.5;entryDx=0;entryDy=0;" edge="1" parent="1" source="WVHRP2i-yzT7vewwZdG2-11" target="WVHRP2i-yzT7vewwZdG2-1">
          <mxGeometry relative="1" as="geometry" />
        </mxCell>
        <mxCell id="WVHRP2i-yzT7vewwZdG2-11" value="Admin" style="shape=umlActor;verticalLabelPosition=bottom;verticalAlign=top;html=1;outlineConnect=0;" vertex="1" parent="1">
          <mxGeometry x="70" y="250" width="30" height="60" as="geometry" />
        </mxCell>
        <mxCell id="WVHRP2i-yzT7vewwZdG2-18" style="edgeStyle=orthogonalEdgeStyle;rounded=0;orthogonalLoop=1;jettySize=auto;html=1;exitX=0;exitY=1;exitDx=0;exitDy=0;exitPerimeter=0;entryX=1;entryY=0.5;entryDx=0;entryDy=0;" edge="1" parent="1" source="WVHRP2i-yzT7vewwZdG2-12" target="WVHRP2i-yzT7vewwZdG2-9">
          <mxGeometry relative="1" as="geometry" />
        </mxCell>
        <mxCell id="WVHRP2i-yzT7vewwZdG2-19" style="edgeStyle=orthogonalEdgeStyle;rounded=0;orthogonalLoop=1;jettySize=auto;html=1;exitX=0;exitY=0.3333333333333333;exitDx=0;exitDy=0;exitPerimeter=0;entryX=1;entryY=0.5;entryDx=0;entryDy=0;" edge="1" parent="1" source="WVHRP2i-yzT7vewwZdG2-12" target="WVHRP2i-yzT7vewwZdG2-7">
          <mxGeometry relative="1" as="geometry" />
        </mxCell>
        <mxCell id="WVHRP2i-yzT7vewwZdG2-20" style="edgeStyle=orthogonalEdgeStyle;rounded=0;orthogonalLoop=1;jettySize=auto;html=1;exitX=0.5;exitY=0;exitDx=0;exitDy=0;exitPerimeter=0;entryX=1;entryY=0.5;entryDx=0;entryDy=0;" edge="1" parent="1" source="WVHRP2i-yzT7vewwZdG2-12" target="WVHRP2i-yzT7vewwZdG2-6">
          <mxGeometry relative="1" as="geometry" />
        </mxCell>
        <mxCell id="WVHRP2i-yzT7vewwZdG2-24" style="edgeStyle=orthogonalEdgeStyle;rounded=0;orthogonalLoop=1;jettySize=auto;html=1;exitX=0.75;exitY=0.1;exitDx=0;exitDy=0;exitPerimeter=0;entryX=0.5;entryY=1;entryDx=0;entryDy=0;" edge="1" parent="1" source="WVHRP2i-yzT7vewwZdG2-12" target="WVHRP2i-yzT7vewwZdG2-1">
          <mxGeometry relative="1" as="geometry" />
        </mxCell>
        <mxCell id="WVHRP2i-yzT7vewwZdG2-12" value="User" style="shape=umlActor;verticalLabelPosition=bottom;verticalAlign=top;html=1;outlineConnect=0;" vertex="1" parent="1">
          <mxGeometry x="810" y="240" width="30" height="60" as="geometry" />
        </mxCell>
        <mxCell id="WVHRP2i-yzT7vewwZdG2-16" style="edgeStyle=orthogonalEdgeStyle;rounded=0;orthogonalLoop=1;jettySize=auto;html=1;exitX=1;exitY=1;exitDx=0;exitDy=0;exitPerimeter=0;entryX=0;entryY=0.75;entryDx=0;entryDy=0;entryPerimeter=0;" edge="1" parent="1" source="WVHRP2i-yzT7vewwZdG2-11" target="WVHRP2i-yzT7vewwZdG2-4">
          <mxGeometry relative="1" as="geometry" />
        </mxCell>
      </root>
    </mxGraphModel>
  </diagram>
</mxfile>
